<?xml version="1.0" standalone="no"?>
<!DOCTYPE svg PUBLIC "-//W3C//DTD SVG 20010904//EN"
 "http://www.w3.org/TR/2001/REC-SVG-20010904/DTD/svg10.dtd">
<svg version="1.0" xmlns="http://www.w3.org/2000/svg"
 width="126.000000pt" height="126.000000pt" viewBox="0 0 126.000000 126.000000"
 preserveAspectRatio="xMidYMid meet">

<g transform="translate(0.000000,126.000000) scale(0.100000,-0.100000)"
fill="#000000" stroke="none">
<path d="M0 680 c0 -319 3 -580 8 -580 4 0 18 9 32 20 14 11 33 20 43 20 9 0
17 4 17 9 0 9 114 61 135 61 7 0 15 4 17 10 2 5 13 11 25 13 12 2 26 6 29 10
4 4 16 7 26 7 11 0 32 7 48 15 16 8 45 17 64 20 20 2 51 7 69 10 24 5 37 2 46
-9 19 -22 28 -20 35 9 4 14 13 25 20 25 24 0 121 34 128 44 4 6 10 8 13 4 4
-3 30 4 58 17 28 13 54 22 59 19 4 -3 8 0 8 5 0 6 6 11 12 11 18 0 118 51 142
72 11 10 28 20 38 24 10 3 18 12 18 20 0 8 5 12 10 9 6 -3 10 -2 10 4 0 16 47
81 54 74 3 -4 6 1 6 10 0 9 3 16 8 15 12 -4 52 26 52 39 0 7 7 13 15 13 13 0
15 38 15 280 l0 280 -630 0 -630 0 0 -580z m400 376 c0 -2 -7 -7 -16 -10 -8
-3 -12 -2 -9 4 6 10 25 14 25 6z m61 -33 l34 -38 -40 35 c-22 19 -42 36 -44
38 -2 1 0 2 5 2 6 0 26 -17 45 -37z m544 17 c2 -4 -6 -6 -18 -5 -30 2 -97 -24
-126 -49 l-24 -21 13 21 c22 36 141 77 155 54z m45 -25 c13 -14 21 -25 18 -25
-2 0 -15 11 -28 25 -13 14 -21 25 -18 25 2 0 15 -11 28 -25z m-223 -87 c-3 -7
-5 -2 -5 12 0 14 2 19 5 13 2 -7 2 -19 0 -25z m260 0 c-3 -8 -6 -5 -6 6 -1 11
2 17 5 13 3 -3 4 -12 1 -19z m-594 -13 c-3 -9 -8 -14 -10 -11 -3 3 -2 9 2 15
9 16 15 13 8 -4z m-373 -20 c0 -7 -30 -13 -34 -7 -3 4 4 9 15 9 10 1 19 0 19
-2z m360 -15 c0 -5 -16 -16 -35 -24 -19 -8 -35 -20 -35 -25 0 -6 -5 -11 -11
-11 -17 0 0 19 39 45 44 28 42 28 42 15z m453 -58 c18 -1 37 -3 42 -3 6 -1 27
6 48 15 20 9 37 14 37 11 0 -13 -85 -43 -99 -36 -9 4 -26 6 -38 6 -14 -2 -34
11 -55 34 l-33 36 33 -30 c19 -17 47 -31 65 -33z m-602 1 c13 -16 12 -17 -3
-4 -17 13 -22 21 -14 21 2 0 10 -8 17 -17z m439 -128 c-33 -19 -50 -18 -26 0
11 8 27 15 35 15 10 -1 7 -6 -9 -15z m61 -2 c13 -17 13 -17 -6 -3 -11 8 -22
16 -24 17 -2 2 0 3 6 3 6 0 17 -8 24 -17z m-696 -23 c-3 -5 -12 -10 -18 -10
-7 0 -6 4 3 10 19 12 23 12 15 0z m582 -18 c-10 -10 -17 -25 -17 -32 0 -7 -3
-10 -7 -7 -8 9 17 57 30 57 6 0 3 -8 -6 -18z m144 1 c13 -16 12 -17 -3 -4 -10
7 -18 15 -18 17 0 8 8 3 21 -13z m6 -108 c-23 -22 -33 -18 -12 5 10 11 20 18
23 16 2 -3 -3 -12 -11 -21z m-127 -10 c13 -14 21 -25 18 -25 -2 0 -15 11 -28
25 -13 14 -21 25 -18 25 2 0 15 -11 28 -25z m-606 -213 c2 -4 -5 -9 -17 -9
-17 -2 -19 0 -7 7 18 12 18 12 24 2z m211 -2 c-3 -5 -12 -10 -18 -10 -7 0 -6
4 3 10 19 12 23 12 15 0z"/>
<path d="M792 301 c4 -13 18 -16 19 -4 0 4 -5 9 -11 12 -7 2 -11 -2 -8 -8z"/>
<path d="M120 51 c0 -17 18 -21 24 -6 3 9 0 15 -9 15 -8 0 -15 -4 -15 -9z"/>
</g>
</svg>
